<svg width="15" height="15" viewBox="0 0 15 15" fill="none" xmlns="http://www.w3.org/2000/svg">
<path id="Vector" d="M4.6879 14.2298C4.41905 14.1151 4.25274 13.8414 4.27534 13.5501C4.59285 9.47243 4.07621 8.1878 1.02496 5.46464C0.807345 5.26982 0.737461 4.9576 0.852245 4.68849C0.966918 4.41963 1.24075 4.2537 1.53187 4.27618C5.6095 4.5937 6.89414 4.07706 9.6173 1.02581C9.81207 0.80756 10.1245 0.738048 10.3936 0.852833C10.6627 0.967617 10.8282 1.24097 10.806 1.53283C10.4886 5.6102 11.0053 6.89483 14.0564 9.61825C14.2741 9.81281 14.3439 10.1253 14.2292 10.3942C14.1144 10.6633 13.8407 10.8289 13.5495 10.8067C9.47174 10.4895 8.18732 11.0056 5.46405 14.0571C5.26886 14.2749 4.95675 14.3445 4.6879 14.2298Z" fill="white"/>
</svg>
